<svg id="Layer_1" height="64" viewBox="0 0 512 512" width="64" xmlns="http://www.w3.org/2000/svg" data-name="Layer 1"><g fill-rule="evenodd"><path d="m256.087.083c141.376 0 256 114.587 256 256.035 0 141.377-114.623 255.964-256 255.964s-256.003-114.582-256.003-255.964c0-141.448 114.616-256.035 256.003-256.035z" fill="#ffc107"/><path d="m394.266 387.5-78.266-78.268-15.478 15.468a14.219 14.219 0 0 1 -18.4 1.527c-8.98-6.391-17.636-13.284-25.994-20.466q-13.345-11.461-25.788-23.935-12.435-12.436-23.94-25.788c-7.179-8.359-14.075-17.014-20.463-26a14.206 14.206 0 0 1 1.524-18.393l15.472-15.475-78.268-78.27-17.1 17.1a37.715 37.715 0 0 0 -10.832 34.374c4.853 27.456 17.45 54.574 31.9 78.233 16.737 27.4 37.6 52.955 60.285 75.642s48.236 43.544 75.639 60.281c23.656 14.45 50.774 27.05 78.23 31.9a37.732 37.732 0 0 0 34.379-10.83zm-70.6-85.94 11.413-11.416a9.413 9.413 0 0 1 13.27 0l65 65a9.408 9.408 0 0 1 0 13.27l-11.413 11.415-78.269-78.268zm-191.333-191.328 11.416-11.416a9.421 9.421 0 0 1 13.27 0l65 65a9.416 9.416 0 0 1 0 13.27l-11.414 11.414z" fill="#fff"/></g></svg>