<svg clip-rule="evenodd" fill-rule="evenodd" height="64" image-rendering="optimizeQuality" shape-rendering="geometricPrecision" text-rendering="geometricPrecision" viewBox="0 0 173.397 173.397" width="64" xmlns="http://www.w3.org/2000/svg"><g id="Layer_x0020_1"><circle cx="86.699" cy="86.699" fill="#f26946" r="84.667"/><g id="_409673880" fill="#fff"><path id="_409673736" d="m86.6986 27.432c19.3403 0 35.0187 15.6785 35.0187 35.0188 0 16.1749-26.3471 53.396-35.0187 68.7302-8.6716-15.3341-35.0187-52.5554-35.0187-68.7302 0-19.3403 15.6783-35.0188 35.0187-35.0188zm0 16.4002c10.1514 0 18.3808 8.2293 18.3808 18.3808s-8.2294 18.3809-18.3808 18.3809c-10.1515 0-18.3808-8.2294-18.3808-18.3809s8.2293-18.3808 18.3808-18.3808z"/><path id="_409674000" d="m100.197 114.232c15.6025 2.3221 26.189 8.4453 26.189 15.3786 0 9.0326-17.7685 16.3549-39.6872 16.3549s-39.6872-7.3223-39.6872-16.3549c0-6.9332 10.5861-13.0564 26.1889-15.3786 1.523 2.4393 3.0009 4.7904 4.3929 7.0156-12.6054 1.1308-21.3903 4.4981-21.3903 8.363 0 4.8396 13.6533 8.7631 30.4957 8.7631s30.4957-3.9235 30.4957-8.7631c0-3.8641-8.7821-7.2321-21.3903-8.3631 1.392-2.2252 2.8698-4.5762 4.3928-7.0155z"/></g></g></svg>