<svg id="Layer_1" height="64" viewBox="0 0 512 512" width="64" xmlns="http://www.w3.org/2000/svg" data-name="Layer 1"><path d="m256 0c141.378 0 256 114.616 256 256s-114.622 256-256 256-256-114.624-256-256 114.618-256 256-256zm-42.4 298.415c-20.787-20.818-36.96-45.389-45.53-69.27a28.538 28.538 0 0 1 9.321-32.2l19.636-15.35-23.953-47.522-20.546 2.974a41.9 41.9 0 0 0 -18.006 32.141c-.033.661-.1 1.232-.135 1.623a120.8 120.8 0 0 0 1.745 35.9 169.172 169.172 0 0 0 12.121 37.4c11.163 24.692 28.273 48.964 49.48 70.171s45.471 38.33 70.175 49.474a167.97 167.97 0 0 0 37.386 12.136 121.444 121.444 0 0 0 35.969 1.743 15.137 15.137 0 0 1 1.58-.151 41.867 41.867 0 0 0 32.127-17.993l2.992-20.547-47.552-23.978-15.338 19.646a28.555 28.555 0 0 1 -32.2 9.342c-23.878-8.591-48.474-24.752-69.27-45.539zm21.012-132.803-26.194-51.968a37.51 37.51 0 0 0 -38.894-20.244l-23.578 3.425a36.877 36.877 0 0 0 -15.356 5.857 82.815 82.815 0 0 0 -36.741 63.893 161.8 161.8 0 0 0 2.268 47.825 208.319 208.319 0 0 0 15 46.471c13.166 29.138 33.154 57.585 57.795 82.217 24.647 24.662 53.07 44.638 82.214 57.795a207.929 207.929 0 0 0 46.474 15.017 168.2 168.2 0 0 0 31.8 3.094 148.613 148.613 0 0 0 16.027-.841 82.8 82.8 0 0 0 63.89-36.738 36.859 36.859 0 0 0 5.857-15.349l3.425-23.581a37.479 37.479 0 0 0 -20.247-38.9l-51.976-26.194a37.633 37.633 0 0 0 -46.453 10.424l-11.33 14.505c-32.494-14.6-64.305-46.411-78.916-78.913l14.523-11.324a37.633 37.633 0 0 0 10.409-46.471z" fill="#ffcd00" fill-rule="evenodd"/></svg>